# xmcd
#
# Track frame offsets: 
#        150
#        8385
#        22982
#        34790
#        43220
#        54840
#        76540
#        90570
#        100197
#        113840
#        134345
#        160325
#        192960
#        222237
#        235325
#        251012
#        270100
#        294015
#        319727
#
# Disc length: 4477 seconds
#
# Revision: 1
# Processed by: cddbd v1.5.1PL2 Copyright (c) Steve Scherf et al.
# Submitted via: ExactAudioCopy v0.95a5
#
DISCID=e7117b13
DTITLE=Erik Moseholm - Collection CD 2 1958-62
DYEAR=1998
DGENRE=Jazz
TTITLE0=Snappy Strings
TTITLE1=BAllad
TTITLE2=Jordu
TTITLE3=Blues for Strings
TTITLE4=Jens Vejmand
TTITLE5=Willow weep for me
TTITLE6=Svinninge Blues
TTITLE7=Missil
TTITLE8=Magi
TTITLE9=Swinging till the girls come home
TTITLE10=Bohemia after dark
TTITLE11=Kontraster
TTITLE12=Series for piano, vibraphone, bass and drums
TTITLE13=Ouverture
TTITLE14=Mutationsriff
TTITLE15=TYhere'll never be another you
TTITLE16=Don't blame me
TTITLE17=All the things you are
TTITLE18=Lester leaps in
EXTD=
EXTT0=
EXTT1=
EXTT2=
EXTT3=
EXTT4=
EXTT5=
EXTT6=
EXTT7=
EXTT8=
EXTT9=
EXTT10=
EXTT11=
EXTT12=
EXTT13=
EXTT14=
EXTT15=
EXTT16=
EXTT17=
EXTT18=
PLAYORDER=
